<?xml version="1.0" standalone="no"?>
<!DOCTYPE svg PUBLIC "-//W3C//DTD SVG 20010904//EN"
 "http://www.w3.org/TR/2001/REC-SVG-20010904/DTD/svg10.dtd">
<svg version="1.0" xmlns="http://www.w3.org/2000/svg"
 width="300.000000pt" height="300.000000pt" viewBox="0 0 300.000000 300.000000"
 preserveAspectRatio="xMidYMid meet">
<metadata>
Created by potrace 1.10, written by Peter Selinger 2001-2011
</metadata>
<g transform="translate(0.000000,300.000000) scale(0.100000,-0.100000)"
fill="#000000" stroke="none">
<path d="M1890 2499 c-594 -28 -1044 -85 -1284 -165 -94 -30 -238 -101 -317
-155 -107 -72 -176 -174 -215 -314 -25 -93 -30 -362 -10 -505 23 -155 73 -373
101 -435 60 -137 171 -200 397 -225 101 -12 356 -7 527 9 l76 7 85 -68 c176
-144 235 -171 319 -148 65 17 104 60 159 174 l50 103 118 7 c66 4 256 11 424
16 380 11 432 22 522 112 79 79 108 189 108 419 0 153 -26 466 -55 662 -16
108 -63 259 -100 323 -45 76 -125 140 -197 158 -48 11 -370 36 -453 34 -44 0
-159 -5 -255 -9z m555 -49 c156 -15 207 -31 262 -86 78 -78 129 -222 157 -444
50 -391 59 -750 22 -850 -41 -112 -69 -144 -162 -187 -63 -28 -190 -42 -392
-43 -247 0 -533 -20 -564 -38 -18 -10 -47 -52 -80 -116 -61 -117 -95 -146
-165 -146 -60 0 -90 15 -218 115 -61 47 -120 88 -132 91 -13 4 -123 1 -246 -6
-461 -24 -646 26 -724 196 -28 62 -76 266 -99 424 -21 144 -15 412 11 504 50
177 137 266 365 375 229 109 612 173 1260 210 203 12 581 12 705 1z"/>
<path d="M2090 2110 c-25 -4 -94 -16 -155 -25 -60 -9 -125 -20 -144 -25 -71
-19 -101 -78 -65 -128 29 -42 51 -43 251 -11 285 44 341 38 381 -41 39 -78 22
-254 -38 -369 l-18 -36 -11 28 c-6 16 -11 36 -11 45 0 30 -39 81 -66 88 -46
12 -77 -7 -105 -62 -14 -29 -29 -62 -33 -75 -6 -23 -7 -23 -17 -5 -10 17 -7
84 7 142 7 28 -40 84 -71 84 -38 0 -74 -37 -91 -96 -16 -56 -28 -67 -38 -36
-4 10 -24 36 -47 58 -38 37 -43 39 -103 39 -53 0 -68 -4 -98 -27 -22 -17 -43
-46 -53 -73 -10 -25 -21 -45 -25 -45 -4 0 -10 101 -13 225 -8 246 -16 287 -62
305 -37 14 -80 -10 -96 -55 -13 -36 -23 -43 -34 -25 -12 19 -61 10 -85 -15
-29 -31 -38 -89 -39 -252 l-1 -122 -62 5 c-59 6 -66 4 -113 -27 -84 -57 -125
-144 -125 -264 0 -47 6 -74 28 -116 63 -125 177 -133 274 -17 l42 49 12 -29
c30 -71 91 -92 137 -46 l26 26 30 -23 c30 -22 32 -22 64 -7 21 10 39 29 47 50
7 18 14 34 16 36 1 2 19 -8 39 -23 39 -26 86 -32 128 -16 40 16 95 80 112 132
9 27 20 51 25 54 4 3 15 -16 24 -41 47 -139 148 -168 234 -69 l33 37 51 -27
c45 -25 54 -26 88 -16 115 34 225 280 224 496 0 119 -23 188 -84 258 -56 63
-122 89 -235 93 -49 2 -110 -1 -135 -6z m225 -45 c82 -22 121 -55 158 -133 41
-89 47 -184 18 -305 -56 -235 -159 -369 -239 -310 -15 11 -37 37 -49 59 l-22
38 -19 -44 c-59 -138 -151 -155 -202 -38 -29 66 -38 220 -18 287 16 54 46 77
72 58 17 -12 17 -19 6 -72 -13 -62 -9 -141 11 -221 16 -62 28 -48 80 91 36 97
58 135 79 135 23 0 43 -34 55 -92 7 -36 21 -80 30 -98 21 -40 34 -30 74 54 74
156 92 325 46 424 -47 100 -132 113 -435 62 -156 -26 -177 -27 -197 -14 -13 8
-23 21 -23 29 0 32 33 43 202 69 95 15 180 28 188 30 40 9 132 4 185 -9z
m-847 -38 c7 -8 15 -124 21 -303 7 -226 14 -313 31 -402 18 -90 20 -115 10
-127 -18 -22 -47 -18 -64 8 -19 30 -44 159 -56 287 -14 158 -13 523 2 538 16
16 43 15 56 -1z m-151 -65 c9 -6 14 -63 18 -203 8 -275 12 -329 37 -458 21
-111 21 -114 3 -127 -23 -17 -27 -17 -48 -1 -44 33 -81 320 -75 581 5 168 7
191 24 203 21 15 25 16 41 5z m463 -331 c92 -64 93 -271 0 -363 -32 -32 -44
-38 -80 -38 -77 0 -130 79 -130 193 0 74 36 182 67 203 56 36 96 38 143 5z
m-575 -102 c56 -68 54 -193 -6 -298 -91 -158 -249 -102 -249 89 0 84 30 166
76 204 73 62 129 63 179 5z"/>
<path d="M1687 1553 c-40 -46 -45 -179 -7 -225 18 -22 19 -22 39 -4 44 40 60
170 28 219 -20 31 -38 34 -60 10z m33 -102 c0 -38 -14 -63 -22 -40 -6 19 4 79
13 79 5 0 9 -18 9 -39z"/>
<path d="M1076 1446 c-24 -30 -38 -59 -42 -88 -6 -44 9 -123 25 -133 57 -34
135 191 86 245 -10 11 -21 20 -25 20 -4 0 -24 -20 -44 -44z m44 -61 c0 -15 -7
-40 -16 -57 -15 -28 -17 -30 -26 -13 -7 12 -7 30 1 56 13 45 41 53 41 14z"/>
<path d="M621 1926 c-12 -13 -25 -36 -30 -52 -8 -30 -20 -39 -113 -78 -91 -39
-106 -97 -38 -148 23 -17 29 -17 80 -4 60 16 70 14 70 -13 0 -23 -13 -33 -70
-55 -56 -22 -100 -62 -100 -92 0 -13 11 -35 23 -50 26 -30 68 -35 122 -14 16
6 32 7 36 3 4 -4 18 -71 29 -148 12 -76 28 -151 36 -167 27 -52 80 -63 119
-23 31 30 32 63 5 244 -13 88 -16 138 -10 146 5 7 28 17 51 24 49 15 89 54 89
88 0 14 -13 38 -30 55 -28 28 -34 29 -81 23 l-51 -7 4 28 c3 27 8 30 88 51 47
11 120 29 163 38 94 20 137 51 137 99 0 22 -8 40 -25 56 -21 20 -31 22 -82 18
-32 -3 -109 -18 -171 -33 l-114 -27 -32 31 c-38 37 -74 40 -105 7z m73 -22 c9
-8 16 -28 16 -44 l0 -29 48 14 c96 28 321 75 336 69 19 -7 29 -36 20 -57 -3
-9 -22 -21 -43 -26 -20 -5 -108 -26 -196 -47 l-160 -39 4 -70 c2 -38 4 -71 6
-73 2 -2 28 4 59 13 59 17 90 14 100 -11 11 -29 -13 -52 -71 -69 -32 -9 -64
-18 -70 -20 -18 -6 -16 -31 12 -221 27 -178 26 -194 -20 -194 -12 0 -27 6 -32
13 -11 13 -53 281 -53 333 0 17 -3 33 -6 36 -3 4 -39 -5 -81 -19 -74 -25 -75
-25 -94 -6 -31 30 -14 49 73 82 44 17 83 31 87 31 5 0 3 140 -3 147 -1 1 -37
-9 -80 -22 -87 -27 -120 -22 -114 18 2 17 21 29 83 54 44 18 88 34 97 37 14 3
18 15 18 50 0 32 5 48 18 55 23 14 28 14 46 -5z"/>
</g>
</svg>
